Coordinates
version=1
nRows=4
nColumns=107
inDegrees=yes

Units are S.I. units (second, meters, Newtons, ...)
If the header above contains a line with 'inDegrees', this indicates whether rotational values are in degrees (yes) or radians (no).

endheader
time	sternoclavicular_r2	sternoclavicular_r3	unrotscap_r3	unrotscap_r2	acromioclavicular_r2	acromioclavicular_r3	acromioclavicular_r1	unrothum_r1	unrothum_r3	unrothum_r2	elv_angle	shoulder_elv	shoulder1_r2	shoulder_rot	elbow_flexion	pro_sup	deviation	flexion	proximal_distal_r1	proximal_distal_r3	cmc_flexion	cmc_abduction	mp_flexion	ip_flexion	mcp2_flexion	mcp2_abduction	pm2_flexion	md2_flexion	mcp3_flexion	mcp3_abduction	pm3_flexion	md3_flexion	mcp4_flexion	mcp4_abduction	pm4_flexion	md4_flexion	mcp5_flexion	mcp5_abduction	pm5_flexion	md5_flexion	bicpt_tx	bicpt_ty	bicpt_tz	bicpt2_tx	bicpt2_ty	bicpt2_tz	ptpt_tx	ptpt_ty	ptpt_tz	FCUpt_tx	FCUpt_ty	FCUpt_tz	EDCpt_tx	EDCpt_ty	EDCpt_tz	APLpt_tx	APLpt_ty	APLpt_tz	FPLpt_tx	FPLpt_ty	FPLpt_tz	FPLpt2_tx	FPLpt2_ty	FPLpt2_tz	PEC1pt2_tx	PEC1pt2_ty	PEC1pt2_tz	PEC1pt3_tx	PEC1pt3_ty	PEC1pt3_tz	PEC2pt2_tx	PEC2pt2_ty	PEC2pt2_tz	PEC2pt3_tx	PEC2pt3_ty	PEC2pt3_tz	PEC3pt2_tx	PEC3pt2_ty	PEC3pt2_tz	PEC3pt3_tx	PEC3pt3_ty	PEC3pt3_tz	DELT2pt2a_tx	DELT2pt2a_ty	DELT2pt2a_tz	DELT2pt2_tx	DELT2pt2_ty	DELT2pt2_tz	LAT1pt2_tx	LAT1pt2_ty	LAT1pt2_tz	LAT1pt3_tx	LAT1pt3_ty	LAT1pt3_tz	LAT2pt2_tx	LAT2pt2_ty	LAT2pt2_tz	LAT2pt3_tx	LAT2pt3_ty	LAT2pt3_tz	LAT3pt2_tx	LAT3pt2_ty	LAT3pt2_tz	LAT3pt3_tx	LAT3pt3_ty	LAT3pt3_tz
      0.36666667	     -0.32393549	      0.13720379	     -0.13720379	      0.32393549	     -0.06559035	      0.53007812	      0.23826647	     -0.23826647	     -0.53007812	      0.06559035	     98.55422856	     76.69460688	     -1.72009578	    -19.29915831	     28.25903277	     20.62966940	      0.07570305	     -0.59250785	      0.09804931	     -0.29625392	     -6.42843561	     -1.41564739	    -16.62036751	    -12.23155232	    -24.83698180	     13.85269722	      7.79549875	    -18.20232295	     30.06796085	     11.71430328	     82.60790178	     29.09754497	     30.85654099	      0.16345281	     78.73706345	     29.72416629	    -15.05512611	    -14.10759111	    -12.25240523	      5.01102419	      0.00083472	     -0.03083892	     -0.00482170	      0.01610906	     -0.01787670	     -0.00927482	      0.00602570	     -0.06588564	     -0.00171183	      0.00588795	     -0.18384475	     -0.00010764	     -0.00247555	      0.00065018	      0.00018381	      0.00031222	      0.00012489	      0.00062444	      0.00039964	      0.00119892	      0.00067439	     -0.00056761	      0.00018367	      0.00022040	      0.00251388	      0.00881989	      0.00613557	     -0.00822337	      0.01985540	     -0.01883280	      0.00251388	      0.00881989	      0.00613557	      0.00055391	      0.01840672	     -0.00967205	      0.00396786	      0.00490463	      0.01601614	      0.00000000	      0.00786722	      0.00000000	     -0.00720078	     -0.03327697	     -0.00648737	      0.01336856	     -0.00041051	     -0.00305878	     -0.00089477	      0.01499807	     -0.00613557	      0.00247127	      0.02164494	     -0.01789542	     -0.00600775	      0.01299549	     -0.00549645	     -0.01252680	      0.02743965	     -0.03072048	     -0.02351970	      0.01452938	     -0.00737121	     -0.01559458	      0.03170046	     -0.03838994
      0.40000000	     -0.32408562	      0.13726737	     -0.13726737	      0.32408562	     -0.06562074	      0.53032378	      0.23837689	     -0.23837689	     -0.53032378	      0.06562074	     98.48502537	     76.73015014	     -1.71888796	    -19.16975666	     28.31425356	     20.82596452	      0.07668802	     -0.59375633	      0.09926279	     -0.29687816	     -6.46864898	     -1.38847118	    -16.63970774	    -12.23716148	    -24.78960088	     13.86141275	      7.82029551	    -18.19588768	     30.06172619	     11.71863673	     82.61658066	     29.09963416	     30.88593785	      0.17469574	     78.77253063	     29.73028683	    -15.20507903	    -14.11640271	    -12.31018266	      4.99596774	      0.00083655	     -0.03084525	     -0.00482272	      0.01611805	     -0.01789171	     -0.00925915	      0.00601120	     -0.06589502	     -0.00172764	      0.00590655	     -0.18384173	     -0.00011187	     -0.00249911	      0.00065700	      0.00018444	      0.00031225	      0.00012490	      0.00062451	      0.00039969	      0.00119906	      0.00067447	     -0.00057420	      0.00018496	      0.00022196	      0.00251505	      0.00882397	      0.00613842	     -0.00822718	      0.01986460	     -0.01884153	      0.00251505	      0.00882397	      0.00613842	      0.00055416	      0.01841525	     -0.00967653	      0.00396920	      0.00490690	      0.01601938	      0.00000000	      0.00787457	      0.00000000	     -0.00720411	     -0.03329239	     -0.00649347	      0.01329255	     -0.00040658	     -0.00301545	     -0.00089519	      0.01500502	     -0.00613842	      0.00247242	      0.02165497	     -0.01790372	     -0.00601053	      0.01300151	     -0.00549900	     -0.01253260	      0.02745237	     -0.03073471	     -0.02353060	      0.01453611	     -0.00737463	     -0.01560181	      0.03171516	     -0.03840774
      0.43333333	     -0.32196285	      0.13636827	     -0.13636827	      0.32196285	     -0.06519093	      0.52685016	      0.23681552	     -0.23681552	     -0.52685016	      0.06519093	     98.94368744	     76.22756767	     -1.72689312	    -21.59246421	     28.40215381	     23.18901997	      0.07498020	     -0.59154816	      0.09715733	     -0.29577408	     -6.52595850	     -0.83077993	    -17.03437728	    -12.10565285	    -24.04910624	     13.85512127	      8.27906880	    -17.89166078	     30.09350676	     11.73749540	     83.07889550	     29.24718342	     30.63560995	      0.24523819	     80.37724048	     29.42848925	    -15.76003784	    -14.13551758	    -12.09836761	      5.02457636	      0.00083946	     -0.03085532	     -0.00482435	      0.01621973	     -0.01791558	     -0.00906651	      0.00583659	     -0.06600792	     -0.00191800	      0.00613134	     -0.18380465	     -0.00016067	     -0.00278268	      0.00074000	      0.00019052	      0.00031219	      0.00012488	      0.00062438	      0.00039961	      0.00119882	      0.00067433	     -0.00058358	      0.00018681	      0.00022417	      0.00249857	      0.00876618	      0.00609821	     -0.00817330	      0.01973449	     -0.01871812	      0.00249857	      0.00876618	      0.00609821	      0.00055053	      0.01829463	     -0.00961315	      0.00395023	      0.00487476	      0.01597324	      0.00000000	      0.00777102	      0.00000000	     -0.00715693	     -0.03307432	     -0.00640752	      0.01467823	     -0.00048134	     -0.00387078	     -0.00088932	      0.01490674	     -0.00609821	      0.00245622	      0.02151313	     -0.01778645	     -0.00597116	      0.01291635	     -0.00546298	     -0.01245051	      0.02727255	     -0.03053340	     -0.02337647	      0.01444090	     -0.00732632	     -0.01549962	      0.03150742	     -0.03815616
      0.46666667	     -0.32198979	      0.13637968	     -0.13637968	      0.32198979	     -0.06519638	      0.52689424	      0.23683533	     -0.23683533	     -0.52689424	      0.06519638	     98.92449624	     76.23394548	     -1.72655817	    -21.60173816	     28.38810929	     23.18474847	      0.07498174	     -0.59151796	      0.09715892	     -0.29575898	     -6.52576253	     -0.83061856	    -17.03444179	    -12.10574830	    -24.04111258	     13.85346524	      8.28118724	    -17.89018318	     30.09296476	     11.73791676	     83.07948179	     29.24746305	     30.63402501	      0.24564486	     80.37822028	     29.42867866	    -15.75651531	    -14.13577417	    -12.09689576	      5.02478678	      0.00083899	     -0.03085371	     -0.00482409	      0.01621956	     -0.01791177	     -0.00906686	      0.00583691	     -0.06600771	     -0.00191766	      0.00613093	     -0.18380472	     -0.00016058	     -0.00278216	      0.00073985	      0.00019051	      0.00031219	      0.00012487	      0.00062437	      0.00039960	      0.00119880	      0.00067432	     -0.00058355	      0.00018680	      0.00022416	      0.00249878	      0.00876691	      0.00609872	     -0.00817398	      0.01973614	     -0.01871968	      0.00249878	      0.00876691	      0.00609872	      0.00055058	      0.01829616	     -0.00961396	      0.00395047	      0.00487517	      0.01597383	      0.00000000	      0.00777233	      0.00000000	     -0.00715753	     -0.03307709	     -0.00640861	      0.01468338	     -0.00048163	     -0.00387423	     -0.00088940	      0.01490798	     -0.00609872	      0.00245643	      0.02151493	     -0.01778794	     -0.00597166	      0.01291743	     -0.00546344	     -0.01245155	      0.02727483	     -0.03053596	     -0.02337843	      0.01444211	     -0.00732694	     -0.01550092	      0.03151006	     -0.03815936
